<mxfile host="app.diagrams.net" modified="2023-05-08T14:41:26.663Z" agent="Mozilla/5.0 (Windows NT 10.0; Win64; x64) AppleWebKit/537.36 (KHTML, like Gecko) Chrome/112.0.0.0 Safari/537.36 Edg/112.0.1722.68" etag="NNUuesnIw5wG5n6eHC9r" version="21.2.9" type="github">
  <diagram name="Sayfa -1" id="zuEIfljZzm9WpW21IEJc">
    <mxGraphModel dx="1434" dy="796" grid="1" gridSize="10" guides="1" tooltips="1" connect="1" arrows="1" fold="1" page="1" pageScale="1" pageWidth="827" pageHeight="1169" math="0" shadow="0">
      <root>
        <mxCell id="0" />
        <mxCell id="1" parent="0" />
        <mxCell id="5RWI70ckmKlAFoo9ShY0-2" style="edgeStyle=orthogonalEdgeStyle;rounded=0;orthogonalLoop=1;jettySize=auto;html=1;fillColor=#dae8fc;strokeColor=#6c8ebf;" edge="1" parent="1" source="5RWI70ckmKlAFoo9ShY0-1">
          <mxGeometry relative="1" as="geometry">
            <mxPoint x="245" y="220" as="targetPoint" />
          </mxGeometry>
        </mxCell>
        <mxCell id="5RWI70ckmKlAFoo9ShY0-1" value="&lt;br&gt;ZC01" style="whiteSpace=wrap;html=1;aspect=fixed;fillColor=#dae8fc;strokeColor=#6c8ebf;" vertex="1" parent="1">
          <mxGeometry x="210" y="60" width="70" height="70" as="geometry" />
        </mxCell>
        <mxCell id="5RWI70ckmKlAFoo9ShY0-3" value="ZC01_CF901" style="rounded=0;whiteSpace=wrap;html=1;fillColor=#dae8fc;strokeColor=#6c8ebf;" vertex="1" parent="1">
          <mxGeometry x="185" y="210" width="120" height="60" as="geometry" />
        </mxCell>
        <mxCell id="5RWI70ckmKlAFoo9ShY0-4" value="Package" style="text;html=1;align=center;verticalAlign=middle;resizable=0;points=[];autosize=1;strokeColor=none;fillColor=none;" vertex="1" parent="1">
          <mxGeometry x="210" y="20" width="70" height="30" as="geometry" />
        </mxCell>
        <mxCell id="5RWI70ckmKlAFoo9ShY0-5" value="Table" style="text;html=1;align=center;verticalAlign=middle;resizable=0;points=[];autosize=1;strokeColor=none;fillColor=none;" vertex="1" parent="1">
          <mxGeometry x="220" y="280" width="50" height="30" as="geometry" />
        </mxCell>
      </root>
    </mxGraphModel>
  </diagram>
</mxfile>
